<?xml version="1.0" encoding="utf-8"?>
<!-- Generator: Adobe Illustrator 23.0.3, SVG Export Plug-In . SVG Version: 6.00 Build 0)  -->
<svg version="1.1" xmlns="http://www.w3.org/2000/svg" xmlns:xlink="http://www.w3.org/1999/xlink" x="0px" y="0px"
	 viewBox="0 0 291.2 45.3" width="291.2px" height="45.3px" style="enable-background:new 0 0 291.2 45.3;" xml:space="preserve">
<style type="text/css">
	.st0{fill:#000000;}
</style>
<g id="Layer_1">
	<g>
		<g>
			<g>
				<path class="st0" d="M70.1,0c5.9,0,8.6,4.2,8.6,7.7c0,3.7-2.6,7.8-8.6,7.8H65V26h-6.5V0H70.1z M65,10.8h3c3,0,4-1.1,4-3
					c0-2.2-1.3-3-4.8-3H65V10.8z"/>
				<path class="st0" d="M93.7,0c5.3,0,8.5,3.6,8.5,7.5c0,2.9-1.5,5-4.5,6.4c2.7,1.3,3.5,4.5,7.1,12.2h-7.1
					c-2.8-5.6-3.8-10.6-7.3-10.6h-1.9V26h-6.5V0H93.7z M88.5,10.7H92c1.8,0,3.5-0.8,3.5-3c0-1.9-1.3-2.9-3.7-2.9h-3.3V10.7z"/>
				<path class="st0" d="M119.9,26.3c-9.5,0-14.9-6.7-14.9-13.3c0-6.3,5.1-13.3,14.9-13.3c9.8,0,14.9,7.1,14.9,13.3
					C134.8,19.7,129.3,26.3,119.9,26.3z M119.9,5.1c-5,0-8.2,3.2-8.2,7.9c0,4.8,3.3,7.9,8.2,7.9c4.9,0,8.2-3.2,8.2-7.9
					C128.1,8.2,124.9,5.1,119.9,5.1z"/>
				<path class="st0" d="M148.4,26.3h-2.8L133,0h7l6.9,14.8L153.4,0h7L148.4,26.3z"/>
				<path class="st0" d="M168.8,26h-6.5V0h6.5V26z"/>
				<path class="st0" d="M185.1,0c9.5,0,14.4,5.9,14.4,13c0,7.5-4.7,13-15.1,13h-10.7V0H185.1z M180.1,21.2h4.2
					c6.5,0,8.5-4.4,8.5-8.2c0-4.5-2.4-8.2-8.5-8.2h-4.2V21.2z"/>
				<path class="st0" d="M222.3,26h-19.2V0H222v4.8h-12.4v5.4h11.8V15h-11.8v6.2h12.7V26z"/>
				<path class="st0" d="M252.4,26H247L232.6,9.3V26h-6.5V0h5.9L246,15.9V0h6.5V26z"/>
				<path class="st0" d="M280.6,4.8h-9.4V26h-6.5V4.8h-9.4V0h25.3V4.8z"/>
			</g>
			<g>
				<path class="st0" d="M70.2,43.9c-2,1-3.5,1.4-5.6,1.4c-5.5,0-8.3-3.6-8.3-7.2c0-3.8,3.1-7.3,8.5-7.3c2,0,3.8,0.4,5.1,1.3v3.2
					c-1.6-0.9-3.1-1.5-4.9-1.5c-3,0-5.1,1.8-5.1,4.3c0,2.5,2.1,4.4,5.1,4.4c1.9,0,3.1-0.6,5.1-1.6V43.9z"/>
				<path class="st0" d="M84.7,30.9c2.9,0,4.6,2,4.6,4.1c0,1.6-0.8,2.7-2.4,3.5c1.5,0.7,1.9,2.5,3.9,6.6h-3.9c-1.5-3-2.1-5.8-4-5.8
					h-1v5.8h-3.5V30.9H84.7z M81.9,36.7h1.9c1,0,1.9-0.4,1.9-1.6c0-1.1-0.7-1.6-2-1.6h-1.8V36.7z"/>
				<path class="st0" d="M108.4,45.1H97.9V30.9h10.3v2.6h-6.8v3h6.5v2.6h-6.5v3.4h6.9V45.1z"/>
				<path class="st0" d="M122.8,30.9c5.2,0,7.9,3.2,7.9,7.1c0,4.1-2.6,7.1-8.3,7.1h-5.9V30.9H122.8z M120.1,42.5h2.3
					c3.6,0,4.6-2.4,4.6-4.5c0-2.4-1.3-4.5-4.7-4.5h-2.3V42.5z"/>
				<path class="st0" d="M142.4,45.1h-3.5V30.9h3.5V45.1z"/>
				<path class="st0" d="M163.9,33.5h-5.1v11.6h-3.5V33.5H150v-2.6h13.8V33.5z"/>
				<path class="st0" d="M196.7,30.9V39c0,4.7-3.2,6.3-7.1,6.3c-4.1,0-7.1-1.9-7.1-6.3v-8.1h3.5v8.2c0,2,1.5,3.3,3.5,3.3
					c1.9,0,3.6-1,3.6-3.5v-7.9H196.7z"/>
				<path class="st0" d="M219.6,45.1h-3l-7.9-9.1v9.1h-3.5V30.9h3.3l7.6,8.7v-8.7h3.5V45.1z"/>
				<path class="st0" d="M231.9,45.1h-3.5V30.9h3.5V45.1z"/>
				<path class="st0" d="M248.1,45.3c-5.2,0-8.1-3.7-8.1-7.3c0-3.4,2.8-7.3,8.1-7.3c5.4,0,8.1,3.9,8.1,7.3
					C256.2,41.7,253.2,45.3,248.1,45.3z M248.1,33.7c-2.7,0-4.5,1.7-4.5,4.3c0,2.6,1.8,4.3,4.5,4.3c2.7,0,4.5-1.7,4.5-4.3
					C252.6,35.4,250.8,33.7,248.1,33.7z"/>
				<path class="st0" d="M278.6,45.1h-3l-7.9-9.1v9.1h-3.5V30.9h3.3l7.6,8.7v-8.7h3.5V45.1z"/>
			</g>
		</g>
		<g>
			<path class="st0" d="M0,0h44.8v2.9C23.7,3.1,6.7,20.4,6.7,41.5c0,1.2,0,3.3,0,3.3H0V0L0,0z"/>
			<path class="st0" d="M44.8,9v3.6c-15.7,0.3-28.4,13.1-28.4,28.9c0,1.1,0.1,3.3,0,3.3h-3.6c0.1,0,0-2.2,0-3.3
				C12.9,23.7,27.1,9.3,44.8,9L44.8,9z"/>
			<path class="st0" d="M44.8,18.9v3.4c-10.4,0.3-18.7,8.7-18.7,19.2c0,1.1,0,3.3,0,3.3h-3.3c0.1,0,0-2.2,0-3.3
				C22.8,29.2,32.6,19.2,44.8,18.9L44.8,18.9z"/>
			<path class="st0" d="M44.8,28.7v16.2H32.5c0.1,0,0-2.2,0-3.3C32.4,34.6,37.9,28.9,44.8,28.7L44.8,28.7z"/>
		</g>
	</g>
	<g>
		<path class="st0" d="M284.5,4.7V0.5h1.6V0h-3.8v0.6h1.6v4.2H284.5z"/>
		<path class="st0" d="M286.7,4.7V0h0.9l1.1,3.4c0.1,0.3,0.2,0.6,0.2,0.7c0.1-0.2,0.1-0.4,0.3-0.8l1.2-3.3h0.8v4.8h-0.6v-4l-1.4,4
			h-0.6l-1.4-4.1v4.1H286.7z"/>
	</g>
	<g>
		<path class="st0" d="M48.6,4.7V0.5h1.6V0h-3.8v0.6H48v4.2H48.6z"/>
		<path class="st0" d="M50.9,4.7V0h0.9l1.1,3.4c0.1,0.3,0.2,0.6,0.2,0.7c0.1-0.2,0.1-0.4,0.3-0.8L54.6,0h0.8v4.8h-0.6v-4l-1.4,4
			h-0.6l-1.4-4.1v4.1H50.9z"/>
	</g>
</g>
<g id="Layer_2">
</g>
</svg>
