<?xml version="1.0" encoding="utf-8"?>
<!-- Generator: Adobe Illustrator 24.0.1, SVG Export Plug-In . SVG Version: 6.00 Build 0)  -->
<svg version="1.1" id="Layer_1" xmlns="http://www.w3.org/2000/svg" xmlns:xlink="http://www.w3.org/1999/xlink" x="0px" y="0px"
	 viewBox="0 0 266.9 266.9" style="enable-background:new 0 0 266.9 266.9;" xml:space="preserve">
<style type="text/css">
	.st0{fill:#FFFFFF;}
</style>
<g>
	<circle class="st0" cx="203.4" cy="62" r="17.7"/>
</g>
<g>
	<g>
		<path class="st0" d="M186.1,20c33.6,0,60.9,27.3,60.9,60.9v105.1c0,33.6-27.3,60.9-60.9,60.9H80.9C47.3,247,20,219.7,20,186.1
			V80.9C20,47.3,47.3,20,80.9,20H186.1 M186.1,0H80.9C36.2,0,0,36.2,0,80.9v105.1C0,230.8,36.2,267,80.9,267h105.1
			c44.7,0,80.9-36.2,80.9-80.9V80.9C267,36.2,230.8,0,186.1,0L186.1,0z"/>
	</g>
	<g>
		<path class="st0" d="M133.5,84.7c26.9,0,48.8,21.9,48.8,48.8c0,26.9-21.9,48.8-48.8,48.8c-26.9,0-48.8-21.9-48.8-48.8
			C84.7,106.6,106.6,84.7,133.5,84.7 M133.5,64.7c-38,0-68.8,30.8-68.8,68.8s30.8,68.8,68.8,68.8s68.8-30.8,68.8-68.8
			S171.5,64.7,133.5,64.7L133.5,64.7z"/>
	</g>
</g>
</svg>
