<?xml version="1.0" encoding="utf-8"?>
<!-- Generator: Adobe Illustrator 21.1.0, SVG Export Plug-In . SVG Version: 6.00 Build 0)  -->
<svg version="1.1" id="Capa_1" xmlns="http://www.w3.org/2000/svg" xmlns:xlink="http://www.w3.org/1999/xlink" x="0px" y="0px"
	 viewBox="0 0 533.3 533.3" style="enable-background:new 0 0 533.3 533.3;" xml:space="preserve">
<style type="text/css">
	.st0{fill:#FFFFFF;}
</style>
<g>
	<path class="st0" d="M317.1,340.3c-9,9.1-1.4,25.6-1.4,25.6l67.8,113.1c0,0,11.1,14.9,20.8,14.9c9.7,0,19.2-8,19.2-8l53.6-76.6
		c0,0,5.4-9.7,5.5-18.1c0.2-12-17.9-15.3-17.9-15.3l-126.8-40.7C337.8,335.3,325.4,332,317.1,340.3z M310.7,283.3
		c6.5,11,24.4,7.8,24.4,7.8l126.5-37c0,0,17.2-7,19.7-16.4c2.4-9.4-2.8-20.6-2.8-20.6L418,145.9c0,0-5.2-9-16.1-9.9
		c-12-1-19.4,13.5-19.4,13.5L311,262C311,262,304.7,273.2,310.7,283.3z M250.9,239.5c14.9-3.7,17.3-25.3,17.3-25.3l-1-180.1
		c0,0-2.2-22.2-12.2-28.2c-15.7-9.5-20.3-4.5-24.8-3.9l-105.1,39c0,0-10.3,3.4-15.6,12c-7.7,12.2,7.8,30,7.8,30l109.2,148.8
		C226.4,231.7,237.2,242.9,250.9,239.5z M225,312.4c0.4-13.9-16.7-22.2-16.7-22.2l-112.9-57c0,0-16.7-6.9-24.9-2.1
		c-6.2,3.7-11.7,10.3-12.3,16.2l-7.4,90.5c0,0-1.1,15.7,3,22.8c5.8,10.1,24.7,3.1,24.7,3.1l131.8-29.1
		C215.5,331,224.5,330.7,225,312.4z M257.7,361.2c-11.3-5.8-24.9,6.2-24.9,6.2l-88.3,97.2c0,0-11,14.9-8.2,24
		c2.6,8.6,7,12.8,13.2,15.8l88.6,28c0,0,10.7,2.2,18.9-0.1c11.6-3.3,9.4-21.4,9.4-21.4l2-131.6C268.6,379.3,268.1,366.6,257.7,361.2
		z"/>
</g>
</svg>
