<?xml version="1.0" encoding="utf-8"?>
<!-- Generator: Adobe Illustrator 21.1.0, SVG Export Plug-In . SVG Version: 6.00 Build 0)  -->
<svg version="1.1" id="Layer_1" xmlns="http://www.w3.org/2000/svg" xmlns:xlink="http://www.w3.org/1999/xlink" x="0px" y="0px"
	 viewBox="0 0 22.4 22.4" style="enable-background:new 0 0 22.4 22.4;" xml:space="preserve">
<style type="text/css">
	.st0{fill:#FFFFFF;}
</style>
<path class="st0" d="M2.7,0c1.4,0,2.6,1.1,2.6,2.6S4.1,5.3,2.7,5.3C1.2,5.3,0,4.2,0,2.6S1.2,0,2.7,0"/>
<rect x="0.3" y="7.4" class="st0" width="4.6" height="14.9"/>
<path class="st0" d="M7.8,7.4h4.5v2.1l0,0c0.6-1.1,2.1-2.4,4.3-2.4c4.7,0,5.6,3.1,5.6,7.1v8.2h-4.6v-7.2c0-1.7,0-3.9-2.4-3.9
	s-2.8,1.9-2.8,3.8v7.4H7.8V7.4z"/>
</svg>
